<mxfile host="app.diagrams.net" modified="2023-03-06T06:29:06.464Z" agent="5.0 (Windows NT 10.0; Win64; x64) AppleWebKit/537.36 (KHTML, like Gecko) Chrome/110.0.0.0 Safari/537.36" etag="7hpbXSn5exy4k2mbpx31" version="20.8.23" type="github">
  <diagram name="第 1 页" id="vdA1x2bx-IpHVfDRwEI3">
    <mxGraphModel dx="1434" dy="700" grid="1" gridSize="10" guides="1" tooltips="1" connect="1" arrows="1" fold="1" page="1" pageScale="1" pageWidth="827" pageHeight="1169" math="0" shadow="0">
      <root>
        <mxCell id="0" />
        <mxCell id="1" parent="0" />
        <mxCell id="-PEZ1NeGHMHNOfVVyjDn-4" value="&amp;nbsp; &amp;nbsp; &amp;nbsp; &amp;nbsp; &amp;nbsp; &amp;nbsp; &amp;nbsp; &amp;nbsp; &amp;nbsp; &amp;nbsp; &amp;nbsp; &amp;nbsp; &amp;nbsp; &amp;nbsp; &amp;nbsp; &amp;nbsp; &amp;nbsp; &amp;nbsp;SDP Proxy" style="verticalAlign=top;align=left;shape=cube;size=10;direction=south;fontStyle=0;html=1;boundedLbl=1;spacingLeft=5;" vertex="1" parent="1">
          <mxGeometry x="430" y="680" width="300" height="160" as="geometry" />
        </mxCell>
        <mxCell id="-PEZ1NeGHMHNOfVVyjDn-5" value="SDP Client&amp;nbsp;" style="verticalAlign=top;align=center;shape=cube;size=10;direction=south;html=1;boundedLbl=1;spacingLeft=5;" vertex="1" parent="-PEZ1NeGHMHNOfVVyjDn-4">
          <mxGeometry width="180" height="160" relative="1" as="geometry">
            <mxPoint x="-330" as="offset" />
          </mxGeometry>
        </mxCell>
      </root>
    </mxGraphModel>
  </diagram>
</mxfile>
